<?xml version="1.0" encoding="UTF-8" ?>
<!DOCTYPE svg PUBLIC "-//W3C//DTD SVG 1.1//EN" "http://www.w3.org/Graphics/SVG/1.1/DTD/svg11.dtd">
<svg width="474pt" height="600pt" viewBox="0 0 474 600" version="1.1" xmlns="http://www.w3.org/2000/svg">
<g id="#079e48ff">
<path fill="#079e48" opacity="1.00" d=" M 152.66 0.00 L 321.86 0.00 C 327.46 1.20 333.09 3.67 336.78 8.21 C 341.12 13.01 342.87 19.65 342.80 26.01 C 342.77 36.69 342.80 47.36 342.79 58.04 C 342.76 66.89 337.32 75.52 329.25 79.21 C 323.94 81.96 317.82 81.87 312.01 81.80 C 312.00 100.20 312.00 118.60 312.01 137.00 C 335.56 144.84 357.77 156.53 377.70 171.30 C 417.30 200.18 447.10 241.98 462.54 288.41 C 469.24 309.39 473.09 331.24 474.00 353.24 L 474.00 372.43 C 471.83 418.43 456.23 463.77 428.95 500.92 C 407.28 530.99 378.27 555.58 345.38 572.58 C 306.09 592.90 260.96 601.81 216.90 597.69 C 173.14 594.16 130.55 577.90 95.45 551.55 C 65.95 529.24 41.20 500.36 24.88 467.09 C -2.00 413.82 -6.95 350.17 10.32 293.15 C 24.90 244.95 55.22 201.53 95.89 171.76 C 116.03 156.78 138.48 144.88 162.35 137.02 C 162.36 118.61 162.36 100.21 162.35 81.80 C 156.46 81.84 150.27 82.00 144.89 79.21 C 136.81 75.50 131.52 66.88 131.50 58.03 C 131.53 46.02 131.44 34.01 131.54 22.00 C 132.19 10.74 141.72 1.58 152.66 0.00 M 153.35 19.21 C 151.81 20.25 151.04 22.08 151.18 23.91 C 151.17 34.62 151.15 45.34 151.19 56.05 C 150.98 58.33 152.62 60.81 155.02 60.92 C 159.38 61.27 163.90 60.40 168.11 61.94 C 176.33 64.17 181.85 72.55 181.81 80.89 C 181.87 99.28 181.81 117.67 181.84 136.07 C 181.91 140.36 180.78 144.75 178.26 148.27 C 174.84 153.49 168.73 155.55 163.10 157.41 C 102.90 178.74 53.61 228.25 32.37 288.46 C 11.33 346.16 16.60 412.78 46.46 466.44 C 75.56 520.16 128.50 560.36 188.16 573.68 C 229.70 583.42 274.09 580.23 313.96 565.13 C 349.72 551.70 381.92 528.68 405.74 498.76 C 433.81 464.45 450.92 421.29 453.88 377.05 C 457.01 330.70 445.28 283.23 419.77 244.29 C 393.38 203.12 352.78 171.16 306.32 155.74 C 298.48 153.50 292.47 146.14 292.32 137.91 C 292.17 118.60 292.31 99.29 292.25 79.97 C 292.25 71.85 298.10 64.04 305.97 61.95 C 310.20 60.47 314.71 61.21 319.09 60.94 C 321.61 61.04 322.98 58.21 322.91 56.03 C 322.96 45.34 322.93 34.65 322.92 23.97 C 323.28 21.20 320.97 18.28 318.03 18.75 C 264.33 18.73 210.64 18.76 156.94 18.73 C 155.71 18.69 154.52 18.85 153.35 19.21 Z" />
</g>
<g id="#ffffffff">
<path fill="#ffffff" opacity="1.00" d=" M 153.35 19.21 C 154.52 18.85 155.71 18.69 156.94 18.73 C 210.64 18.76 264.33 18.73 318.03 18.75 C 320.97 18.28 323.28 21.20 322.92 23.97 C 322.93 34.65 322.96 45.34 322.91 56.03 C 322.98 58.21 321.61 61.04 319.09 60.94 C 314.71 61.21 310.20 60.47 305.97 61.95 C 298.10 64.04 292.25 71.85 292.25 79.97 C 292.31 99.29 292.17 118.60 292.32 137.91 C 292.47 146.14 298.48 153.50 306.32 155.74 C 352.78 171.16 393.38 203.12 419.77 244.29 C 445.28 283.23 457.01 330.70 453.88 377.05 C 450.92 421.29 433.81 464.45 405.74 498.76 C 381.92 528.68 349.72 551.70 313.96 565.13 C 274.09 580.23 229.70 583.42 188.16 573.68 C 128.50 560.36 75.56 520.16 46.46 466.44 C 16.60 412.78 11.33 346.16 32.37 288.46 C 53.61 228.25 102.90 178.74 163.10 157.41 C 168.73 155.55 174.84 153.49 178.26 148.27 C 180.78 144.75 181.91 140.36 181.84 136.07 C 181.81 117.67 181.87 99.28 181.81 80.89 C 181.85 72.55 176.33 64.17 168.11 61.94 C 163.90 60.40 159.38 61.27 155.02 60.92 C 152.62 60.81 150.98 58.33 151.19 56.05 C 151.15 45.34 151.17 34.62 151.18 23.91 C 151.04 22.08 151.81 20.25 153.35 19.21 M 201.07 194.60 C 198.55 207.38 204.50 220.55 214.02 228.98 C 219.35 233.50 223.57 239.16 226.92 245.26 C 231.60 255.65 235.10 267.15 233.60 278.66 C 223.09 276.95 213.27 272.42 204.26 266.90 C 193.69 260.65 181.14 258.61 169.01 259.02 C 152.22 259.39 134.68 265.59 124.11 279.16 C 122.57 278.91 121.01 279.02 119.50 279.36 C 107.35 281.77 95.24 284.52 83.45 288.34 C 70.71 292.53 57.71 297.46 47.57 306.52 C 42.98 310.77 41.61 316.95 39.99 322.72 C 39.69 325.18 39.24 327.62 38.89 330.07 C 33.45 363.59 36.70 398.51 48.37 430.41 C 62.53 469.52 89.19 503.95 123.59 527.36 C 158.02 551.14 200.13 563.48 241.95 562.38 C 261.73 561.91 281.31 558.15 300.15 552.20 C 351.20 535.52 394.45 497.01 417.52 448.58 C 436.03 410.61 441.81 366.65 433.92 325.17 C 433.65 322.11 432.71 319.15 432.48 316.08 C 431.69 310.90 427.71 307.20 424.01 303.87 C 414.96 296.68 403.93 292.75 393.34 288.58 C 388.08 275.24 382.78 261.85 375.41 249.51 C 366.95 233.94 356.48 219.55 345.06 206.04 C 352.83 220.68 360.84 235.32 366.38 251.00 C 370.51 261.59 374.06 272.51 375.95 283.74 C 367.21 281.90 358.53 279.19 349.59 278.65 C 341.80 268.85 330.03 263.00 317.95 260.47 C 303.49 257.79 287.93 258.39 274.40 264.56 C 263.38 270.29 252.47 277.51 239.75 278.57 C 239.64 265.18 237.39 251.88 234.04 238.94 C 232.22 232.11 230.10 225.31 226.79 219.04 C 221.56 208.16 212.55 198.80 201.07 194.60 M 254.71 221.51 C 245.77 232.71 244.66 248.34 247.36 261.94 C 252.25 260.82 257.44 259.89 261.50 256.72 C 270.10 250.84 275.10 241.17 278.34 231.53 C 280.87 222.48 283.07 213.24 283.32 203.80 C 271.99 205.92 262.20 212.99 254.71 221.51 Z" />
</g>
<g id="#00cf59ff">
<path fill="#00cf59" opacity="1.00" d=" M 201.07 194.60 C 212.55 198.80 221.56 208.16 226.79 219.04 C 230.10 225.31 232.22 232.11 234.04 238.94 C 237.39 251.88 239.64 265.18 239.75 278.57 C 252.47 277.51 263.38 270.29 274.40 264.56 C 287.93 258.39 303.49 257.79 317.95 260.47 C 330.03 263.00 341.80 268.85 349.59 278.65 C 356.11 287.45 360.48 297.99 361.07 309.00 C 361.21 316.55 361.54 324.35 358.81 331.54 C 335.57 337.12 311.74 339.64 287.94 341.18 C 258.39 343.01 228.75 343.27 199.18 341.87 C 171.19 340.35 143.00 338.28 115.72 331.43 C 115.68 332.09 115.60 333.43 115.56 334.09 C 114.99 329.34 113.08 324.83 112.98 320.01 C 112.80 314.35 112.70 308.64 113.83 303.07 C 115.16 294.37 119.23 286.38 124.11 279.16 C 134.68 265.59 152.22 259.39 169.01 259.02 C 181.14 258.61 193.69 260.65 204.26 266.90 C 213.27 272.42 223.09 276.95 233.60 278.66 C 235.10 267.15 231.60 255.65 226.92 245.26 C 223.57 239.16 219.35 233.50 214.02 228.98 C 204.50 220.55 198.55 207.38 201.07 194.60 Z" />
<path fill="#00cf59" opacity="1.00" d=" M 254.71 221.51 C 262.20 212.99 271.99 205.92 283.32 203.80 C 283.07 213.24 280.87 222.48 278.34 231.53 C 275.10 241.17 270.10 250.84 261.50 256.72 C 257.44 259.89 252.25 260.82 247.36 261.94 C 244.66 248.34 245.77 232.71 254.71 221.51 Z" />
<path fill="#00cf59" opacity="1.00" d=" M 126.83 359.51 C 128.61 359.55 130.38 359.71 132.13 360.04 C 147.02 362.58 162.06 364.08 177.10 365.42 C 233.62 369.85 290.68 368.16 346.74 359.52 C 346.08 361.24 345.37 362.96 344.37 364.52 C 336.76 376.34 327.66 387.08 318.79 397.95 C 305.69 413.19 299.55 433.11 286.02 448.02 C 279.11 455.26 268.68 459.42 258.71 457.23 C 250.38 455.52 243.99 449.62 237.04 445.19 C 231.98 448.37 227.31 452.19 222.04 455.03 C 214.73 458.80 205.92 458.34 198.41 455.46 C 192.41 452.57 187.61 447.71 183.62 442.47 C 174.37 430.28 168.55 415.92 159.68 403.48 C 148.60 388.93 135.94 375.47 126.83 359.51 Z" />
</g>
<g id="#a0edc1ff">
<path fill="#a0edc1" opacity="1.00" d=" M 345.06 206.04 C 356.48 219.55 366.95 233.94 375.41 249.51 C 382.78 261.85 388.08 275.24 393.34 288.58 C 403.93 292.75 414.96 296.68 424.01 303.87 C 427.71 307.20 431.69 310.90 432.48 316.08 C 432.71 319.15 433.65 322.11 433.92 325.17 C 433.65 324.52 433.12 323.22 432.85 322.57 C 427.75 333.53 416.39 339.36 405.85 343.98 C 404.11 344.49 404.92 346.66 404.76 347.95 C 405.93 372.33 401.52 396.61 394.80 419.95 C 389.91 435.95 384.11 451.91 374.83 465.93 C 367.34 477.75 357.30 488.26 344.68 494.56 C 332.38 500.35 317.77 501.65 304.89 497.02 C 300.48 495.60 296.59 491.78 296.28 486.99 C 296.08 481.27 298.36 475.79 300.98 470.82 C 308.56 457.26 318.38 445.16 327.78 432.85 C 340.14 416.71 353.44 401.11 363.09 383.12 C 368.04 373.95 371.86 364.18 374.61 354.13 C 365.33 355.99 356.21 358.84 346.74 359.52 C 290.68 368.16 233.62 369.85 177.10 365.42 C 162.06 364.08 147.02 362.58 132.13 360.04 C 130.38 359.71 128.61 359.55 126.83 359.51 C 120.73 359.28 114.86 357.38 108.88 356.32 C 89.75 352.04 70.41 346.77 53.58 336.39 C 48.42 332.77 43.26 328.26 41.48 321.96 C 41.10 322.15 40.36 322.53 39.99 322.72 C 41.61 316.95 42.98 310.77 47.57 306.52 C 57.71 297.46 70.71 292.53 83.45 288.34 C 95.24 284.52 107.35 281.77 119.50 279.36 C 121.01 279.02 122.57 278.91 124.11 279.16 C 119.23 286.38 115.16 294.37 113.83 303.07 C 112.70 308.64 112.80 314.35 112.98 320.01 C 113.08 324.83 114.99 329.34 115.56 334.09 C 115.60 333.43 115.68 332.09 115.72 331.43 C 143.00 338.28 171.19 340.35 199.18 341.87 C 228.75 343.27 258.39 343.01 287.94 341.18 C 311.74 339.64 335.57 337.12 358.81 331.54 C 361.54 324.35 361.21 316.55 361.07 309.00 C 360.48 297.99 356.11 287.45 349.59 278.65 C 358.53 279.19 367.21 281.90 375.95 283.74 C 374.06 272.51 370.51 261.59 366.38 251.00 C 360.84 235.32 352.83 220.68 345.06 206.04 Z" />
</g>
<g id="#59e092ff">
<path fill="#59e092" opacity="1.00" d=" M 39.99 322.72 C 40.36 322.53 41.10 322.15 41.48 321.96 C 43.26 328.26 48.42 332.77 53.58 336.39 C 70.41 346.77 89.75 352.04 108.88 356.32 C 114.86 357.38 120.73 359.28 126.83 359.51 C 135.94 375.47 148.60 388.93 159.68 403.48 C 168.55 415.92 174.37 430.28 183.62 442.47 C 187.61 447.71 192.41 452.57 198.41 455.46 C 205.92 458.34 214.73 458.80 222.04 455.03 C 227.31 452.19 231.98 448.37 237.04 445.19 C 243.99 449.62 250.38 455.52 258.71 457.23 C 268.68 459.42 279.11 455.26 286.02 448.02 C 299.55 433.11 305.69 413.19 318.79 397.95 C 327.66 387.08 336.76 376.34 344.37 364.52 C 345.37 362.96 346.08 361.24 346.74 359.52 C 356.21 358.84 365.33 355.99 374.61 354.13 C 371.86 364.18 368.04 373.95 363.09 383.12 C 353.44 401.11 340.14 416.71 327.78 432.85 C 318.38 445.16 308.56 457.26 300.98 470.82 C 298.36 475.79 296.08 481.27 296.28 486.99 C 296.59 491.78 300.48 495.60 304.89 497.02 C 317.77 501.65 332.38 500.35 344.68 494.56 C 357.30 488.26 367.34 477.75 374.83 465.93 C 384.11 451.91 389.91 435.95 394.80 419.95 C 401.52 396.61 405.93 372.33 404.76 347.95 C 404.92 346.66 404.11 344.49 405.85 343.98 C 416.39 339.36 427.75 333.53 432.85 322.57 C 433.12 323.22 433.65 324.52 433.92 325.17 C 441.81 366.65 436.03 410.61 417.52 448.58 C 394.45 497.01 351.20 535.52 300.15 552.20 C 281.31 558.15 261.73 561.91 241.95 562.38 C 200.13 563.48 158.02 551.14 123.59 527.36 C 89.19 503.95 62.53 469.52 48.37 430.41 C 36.70 398.51 33.45 363.59 38.89 330.07 C 39.24 327.62 39.69 325.18 39.99 322.72 Z" />
</g>
</svg>
