<?xml version="1.0" encoding="UTF-8" ?>
<!DOCTYPE svg PUBLIC "-//W3C//DTD SVG 1.1//EN" "http://www.w3.org/Graphics/SVG/1.1/DTD/svg11.dtd">
<svg width="474pt" height="600pt" viewBox="0 0 474 600" version="1.1" xmlns="http://www.w3.org/2000/svg">
<g id="#9e0661ff">
<path fill="#9e0661" opacity="1.00" d=" M 153.11 0.00 L 321.37 0.00 C 327.20 0.99 332.97 3.62 336.81 8.24 C 341.11 13.04 342.89 19.61 342.83 25.95 C 342.81 36.65 342.88 47.34 342.79 58.03 C 342.71 66.65 337.67 75.08 329.87 78.89 C 324.43 81.98 318.02 81.84 311.96 81.80 C 311.95 100.20 311.95 118.60 311.96 137.00 C 345.24 147.99 375.71 166.85 401.15 190.88 C 433.21 222.09 457.05 262.14 467.36 305.81 C 471.23 321.13 473.17 336.88 474.00 352.64 L 474.00 371.38 C 471.87 426.80 449.52 481.20 411.80 521.88 C 387.69 548.33 357.37 569.01 324.14 582.24 C 281.89 599.10 234.74 602.97 190.21 593.90 C 148.57 585.66 109.34 565.74 78.03 537.10 C 39.57 502.49 12.86 454.96 3.95 403.95 C 0.67 386.86 -0.04 369.39 0.49 352.02 C 2.71 283.07 37.50 216.01 92.47 174.37 C 113.45 158.12 137.15 145.35 162.36 137.02 C 162.36 118.61 162.36 100.20 162.37 81.78 C 156.25 81.84 149.75 82.06 144.27 78.89 C 136.51 75.04 131.56 66.62 131.53 58.01 C 131.53 46.02 131.44 34.03 131.57 22.04 C 132.10 10.61 141.98 1.27 153.11 0.00 M 153.42 19.17 C 151.07 20.59 151.09 23.55 151.14 25.96 C 151.27 36.28 151.02 46.62 151.26 56.94 C 151.20 59.86 154.42 61.37 156.98 61.01 C 163.05 60.72 169.79 61.11 174.56 65.35 C 179.65 69.21 181.89 75.77 181.83 81.99 C 181.81 100.35 181.86 118.72 181.81 137.08 C 181.88 144.17 177.74 151.15 171.31 154.22 C 165.72 156.78 159.73 158.34 154.13 160.88 C 101.63 182.25 58.35 225.24 36.64 277.60 C 21.63 312.77 16.46 351.97 21.48 389.87 C 28.43 446.03 58.64 498.91 103.55 533.36 C 133.43 557.02 169.83 572.12 207.55 577.26 C 254.04 583.63 302.55 574.48 343.41 551.39 C 401.61 519.37 442.90 458.88 452.15 393.16 C 459.04 345.65 449.83 295.78 425.82 254.15 C 401.88 212.34 363.90 178.52 319.12 160.55 C 313.74 158.14 307.99 156.68 302.65 154.19 C 296.23 151.11 292.27 144.06 292.28 137.02 C 292.22 118.35 292.30 99.67 292.24 81.00 C 291.87 72.86 297.29 64.76 305.08 62.22 C 309.84 60.24 315.04 61.43 320.00 60.79 C 322.45 60.15 323.01 57.27 322.92 55.09 C 322.86 44.39 323.01 33.68 322.85 22.98 C 322.89 20.48 320.50 18.47 318.05 18.77 C 264.69 18.68 211.33 18.79 157.98 18.71 C 156.45 18.75 154.89 18.70 153.42 19.17 Z" />
</g>
<g id="#ffffffff">
<path fill="#ffffff" opacity="1.00" d=" M 153.42 19.17 C 154.89 18.70 156.45 18.75 157.98 18.71 C 211.33 18.79 264.69 18.68 318.05 18.77 C 320.50 18.47 322.89 20.48 322.85 22.98 C 323.01 33.68 322.86 44.39 322.92 55.09 C 323.01 57.27 322.45 60.15 320.00 60.79 C 315.04 61.43 309.84 60.24 305.08 62.22 C 297.29 64.76 291.87 72.86 292.24 81.00 C 292.30 99.67 292.22 118.35 292.28 137.02 C 292.27 144.06 296.23 151.11 302.65 154.19 C 307.99 156.68 313.74 158.14 319.12 160.55 C 363.90 178.52 401.88 212.34 425.82 254.15 C 449.83 295.78 459.04 345.65 452.15 393.16 C 442.90 458.88 401.61 519.37 343.41 551.39 C 302.55 574.48 254.04 583.63 207.55 577.26 C 169.83 572.12 133.43 557.02 103.55 533.36 C 58.64 498.91 28.43 446.03 21.48 389.87 C 16.46 351.97 21.63 312.77 36.64 277.60 C 58.35 225.24 101.63 182.25 154.13 160.88 C 159.73 158.34 165.72 156.78 171.31 154.22 C 177.74 151.15 181.88 144.17 181.81 137.08 C 181.86 118.72 181.81 100.35 181.83 81.99 C 181.89 75.77 179.65 69.21 174.56 65.35 C 169.79 61.11 163.05 60.72 156.98 61.01 C 154.42 61.37 151.20 59.86 151.26 56.94 C 151.02 46.62 151.27 36.28 151.14 25.96 C 151.09 23.55 151.07 20.59 153.42 19.17 M 201.03 194.53 C 199.15 204.69 202.35 215.36 208.76 223.34 C 212.79 228.61 218.53 232.34 222.27 237.88 C 224.32 240.96 226.55 243.98 227.90 247.47 C 232.06 257.24 234.94 267.99 233.63 278.68 C 224.03 277.02 214.88 273.23 206.55 268.24 C 201.83 265.50 196.95 262.87 191.64 261.52 C 175.80 257.37 158.50 258.13 143.32 264.42 C 135.93 267.81 129.21 272.68 124.14 279.10 C 122.45 279.08 120.74 279.08 119.08 279.45 C 98.20 283.79 76.96 288.62 58.13 298.99 C 52.64 302.29 46.89 305.88 43.72 311.66 C 42.20 314.44 41.71 317.63 40.52 320.54 L 40.68 320.88 C 33.99 351.50 35.13 383.74 43.17 414.00 C 50.77 442.35 64.80 468.90 83.66 491.38 C 101.52 512.29 123.53 529.67 148.23 541.82 C 178.99 556.91 213.67 564.11 247.91 562.13 C 267.51 561.07 286.83 556.78 305.38 550.46 C 356.30 532.07 398.76 492.02 420.37 442.41 C 437.10 404.74 441.80 361.68 433.05 321.38 C 433.66 312.44 427.05 305.49 420.05 301.02 C 411.97 295.97 403.22 291.95 394.07 289.28 C 394.04 289.19 394.00 288.99 393.98 288.90 C 393.86 288.87 393.64 288.80 393.53 288.77 C 382.64 258.38 366.27 229.77 344.70 205.69 C 347.05 211.34 350.70 216.31 353.18 221.90 C 362.83 240.36 370.28 259.96 375.32 280.17 C 375.51 281.85 375.14 283.19 373.22 283.29 C 365.93 281.10 358.38 279.94 350.93 278.44 C 350.92 278.89 350.89 279.80 350.88 280.25 C 344.83 271.97 335.94 266.14 326.35 262.77 C 312.03 257.97 296.27 257.75 281.73 261.71 C 276.09 263.25 271.10 266.36 265.98 269.05 C 257.83 273.56 249.17 277.69 239.79 278.59 C 239.46 261.50 236.27 244.47 230.81 228.28 C 225.82 213.77 215.93 199.93 201.03 194.53 M 254.19 222.18 C 245.70 233.35 244.75 248.59 247.34 261.94 C 252.08 260.91 257.07 259.96 261.07 257.02 C 271.03 250.32 276.46 238.84 279.43 227.56 C 281.43 219.77 283.14 211.84 283.34 203.76 C 271.76 206.03 261.68 213.27 254.19 222.18 Z" />
</g>
<g id="#cf007cff">
<path fill="#cf007c" opacity="1.00" d=" M 201.03 194.53 C 215.93 199.93 225.82 213.77 230.81 228.28 C 236.27 244.47 239.46 261.50 239.79 278.59 C 249.17 277.69 257.83 273.56 265.98 269.05 C 271.10 266.36 276.09 263.25 281.73 261.71 C 296.27 257.75 312.03 257.97 326.35 262.77 C 335.94 266.14 344.83 271.97 350.88 280.25 C 356.34 288.57 360.32 298.00 361.00 308.02 C 361.39 315.87 361.56 323.99 358.83 331.49 C 335.59 337.14 311.74 339.61 287.92 341.16 C 250.24 343.52 212.39 343.31 174.76 340.30 C 154.90 338.55 134.95 336.43 115.64 331.33 C 115.66 332.06 115.71 333.51 115.73 334.23 C 112.31 322.53 111.76 309.93 114.91 298.11 C 116.72 291.24 120.19 284.95 124.14 279.10 C 129.21 272.68 135.93 267.81 143.32 264.42 C 158.50 258.13 175.80 257.37 191.64 261.52 C 196.95 262.87 201.83 265.50 206.55 268.24 C 214.88 273.23 224.03 277.02 233.63 278.68 C 234.94 267.99 232.06 257.24 227.90 247.47 C 226.55 243.98 224.32 240.96 222.27 237.88 C 218.53 232.34 212.79 228.61 208.76 223.34 C 202.35 215.36 199.15 204.69 201.03 194.53 Z" />
<path fill="#cf007c" opacity="1.00" d=" M 254.19 222.18 C 261.68 213.27 271.76 206.03 283.34 203.76 C 283.14 211.84 281.43 219.77 279.43 227.56 C 276.46 238.84 271.03 250.32 261.07 257.02 C 257.07 259.96 252.08 260.91 247.34 261.94 C 244.75 248.59 245.70 233.35 254.19 222.18 Z" />
<path fill="#cf007c" opacity="1.00" d=" M 126.93 359.53 C 133.31 360.11 139.60 361.35 145.95 362.16 C 179.78 366.53 213.93 368.07 248.02 367.78 C 280.25 367.01 312.53 364.98 344.36 359.71 C 344.92 359.84 346.03 360.11 346.59 360.24 C 343.84 366.28 339.61 371.46 335.74 376.80 C 328.07 387.10 319.33 396.55 311.97 407.07 C 303.57 420.09 297.46 434.61 287.42 446.54 C 280.43 454.56 269.30 459.53 258.65 457.28 C 250.36 455.47 243.96 449.65 237.05 445.16 C 230.59 449.01 224.97 454.49 217.61 456.63 C 207.66 459.82 196.36 456.21 189.17 448.85 C 176.04 435.38 170.01 416.99 158.75 402.17 C 147.82 388.21 135.78 374.98 126.93 359.53 Z" />
</g>
<g id="#ccccccff">
<path fill="#cccccc" opacity="1.00" d=" M 344.70 205.69 C 366.27 229.77 382.64 258.38 393.53 288.77 C 387.81 287.12 382.02 285.68 376.46 283.52 C 376.07 282.40 375.68 281.29 375.32 280.17 C 370.28 259.96 362.83 240.36 353.18 221.90 C 350.70 216.31 347.05 211.34 344.70 205.69 Z" />
</g>
<g id="#ed9dd0ff">
<path fill="#ed9dd0" opacity="1.00" d=" M 119.08 279.45 C 120.74 279.08 122.45 279.08 124.14 279.10 C 120.19 284.95 116.72 291.24 114.91 298.11 C 111.76 309.93 112.31 322.53 115.73 334.23 C 115.71 333.51 115.66 332.06 115.64 331.33 C 134.95 336.43 154.90 338.55 174.76 340.30 C 212.39 343.31 250.24 343.52 287.92 341.16 C 311.74 339.61 335.59 337.14 358.83 331.49 C 361.56 323.99 361.39 315.87 361.00 308.02 C 360.32 298.00 356.34 288.57 350.88 280.25 C 350.89 279.80 350.92 278.89 350.93 278.44 C 358.38 279.94 365.93 281.10 373.22 283.29 C 374.31 283.97 375.63 284.63 375.77 286.09 C 380.57 308.43 380.26 331.97 374.20 354.04 C 367.45 355.90 360.59 357.31 353.74 358.73 C 350.78 359.39 347.71 359.53 344.74 358.87 C 344.64 359.08 344.45 359.50 344.36 359.71 C 312.53 364.98 280.25 367.01 248.02 367.78 C 213.93 368.07 179.78 366.53 145.95 362.16 C 139.60 361.35 133.31 360.11 126.93 359.53 C 116.09 358.55 105.60 355.40 95.01 353.01 C 80.88 349.19 66.79 344.51 54.25 336.81 C 48.19 333.06 43.22 327.59 40.68 320.88 L 40.52 320.54 C 41.71 317.63 42.20 314.44 43.72 311.66 C 46.89 305.88 52.64 302.29 58.13 298.99 C 76.96 288.62 98.20 283.79 119.08 279.45 Z" />
<path fill="#ed9dd0" opacity="1.00" d=" M 398.55 305.39 C 397.20 299.98 395.24 294.74 394.07 289.28 C 403.22 291.95 411.97 295.97 420.05 301.02 C 427.05 305.49 433.66 312.44 433.05 321.38 C 431.33 326.08 428.38 330.31 424.40 333.38 C 418.63 337.83 412.26 341.56 405.39 344.06 C 404.86 341.77 404.36 339.47 404.14 337.13 C 403.26 326.41 401.23 315.80 398.55 305.39 Z" />
<path fill="#ed9dd0" opacity="1.00" d=" M 374.79 353.88 C 384.92 351.36 394.88 348.18 404.60 344.36 C 406.45 371.73 401.26 399.09 393.19 425.14 C 387.67 442.50 380.45 459.60 369.08 474.00 C 359.31 486.74 345.29 497.06 329.08 499.30 C 320.30 500.30 311.01 499.93 302.88 496.13 C 298.44 494.15 295.56 489.22 296.33 484.36 C 297.54 474.98 303.10 466.98 308.14 459.26 C 320.21 441.80 333.85 425.51 346.56 408.54 C 359.10 392.17 369.35 373.86 374.79 353.88 Z" />
</g>
<g id="#f5c6e2ff">
<path fill="#f5c6e2" opacity="1.00" d=" M 375.32 280.17 C 375.68 281.29 376.07 282.40 376.46 283.52 C 382.02 285.68 387.81 287.12 393.53 288.77 C 393.64 288.80 393.86 288.87 393.98 288.90 C 394.00 288.99 394.04 289.19 394.07 289.28 C 395.24 294.74 397.20 299.98 398.55 305.39 C 401.23 315.80 403.26 326.41 404.14 337.13 C 404.36 339.47 404.86 341.77 405.39 344.06 L 404.60 344.36 C 394.88 348.18 384.92 351.36 374.79 353.88 L 374.20 354.04 C 380.26 331.97 380.57 308.43 375.77 286.09 C 375.63 284.63 374.31 283.97 373.22 283.29 C 375.14 283.19 375.51 281.85 375.32 280.17 Z" />
</g>
<g id="#e05aadff">
<path fill="#e05aad" opacity="1.00" d=" M 40.68 320.88 C 43.22 327.59 48.19 333.06 54.25 336.81 C 66.79 344.51 80.88 349.19 95.01 353.01 C 105.60 355.40 116.09 358.55 126.93 359.53 C 135.78 374.98 147.82 388.21 158.75 402.17 C 170.01 416.99 176.04 435.38 189.17 448.85 C 196.36 456.21 207.66 459.82 217.61 456.63 C 224.97 454.49 230.59 449.01 237.05 445.16 C 243.96 449.65 250.36 455.47 258.65 457.28 C 269.30 459.53 280.43 454.56 287.42 446.54 C 297.46 434.61 303.57 420.09 311.97 407.07 C 319.33 396.55 328.07 387.10 335.74 376.80 C 339.61 371.46 343.84 366.28 346.59 360.24 C 346.03 360.11 344.92 359.84 344.36 359.71 C 344.45 359.50 344.64 359.08 344.74 358.87 C 347.71 359.53 350.78 359.39 353.74 358.73 C 360.59 357.31 367.45 355.90 374.20 354.04 L 374.79 353.88 C 369.35 373.86 359.10 392.17 346.56 408.54 C 333.85 425.51 320.21 441.80 308.14 459.26 C 303.10 466.98 297.54 474.98 296.33 484.36 C 295.56 489.22 298.44 494.15 302.88 496.13 C 311.01 499.93 320.30 500.30 329.08 499.30 C 345.29 497.06 359.31 486.74 369.08 474.00 C 380.45 459.60 387.67 442.50 393.19 425.14 C 401.26 399.09 406.45 371.73 404.60 344.36 L 405.39 344.06 C 412.26 341.56 418.63 337.83 424.40 333.38 C 428.38 330.31 431.33 326.08 433.05 321.38 C 441.80 361.68 437.10 404.74 420.37 442.41 C 398.76 492.02 356.30 532.07 305.38 550.46 C 286.83 556.78 267.51 561.07 247.91 562.13 C 213.67 564.11 178.99 556.91 148.23 541.82 C 123.53 529.67 101.52 512.29 83.66 491.38 C 64.80 468.90 50.77 442.35 43.17 414.00 C 35.13 383.74 33.99 351.50 40.68 320.88 Z" />
</g>
</svg>
