<?xml version="1.0" encoding="UTF-8" ?>
<!DOCTYPE svg PUBLIC "-//W3C//DTD SVG 1.1//EN" "http://www.w3.org/Graphics/SVG/1.1/DTD/svg11.dtd">
<svg width="600pt" height="600pt" viewBox="0 0 600 600" version="1.1" xmlns="http://www.w3.org/2000/svg">
<g id="#000000ff">
<path fill="#000000" opacity="1.00" d=" M 293.51 0.00 L 306.46 0.00 C 329.34 0.73 352.18 3.74 374.37 9.40 C 399.48 16.17 424.10 25.29 446.60 38.44 C 484.35 59.24 517.24 88.61 542.48 123.52 C 579.08 173.29 599.16 234.75 600.00 296.46 L 600.00 303.48 C 599.38 344.95 590.28 386.29 573.07 424.03 C 552.50 469.75 519.97 509.92 479.96 540.05 C 478.64 541.08 477.19 542.18 476.90 543.95 C 473.44 556.68 469.98 569.42 466.48 582.14 C 465.43 585.76 464.85 589.62 462.89 592.91 C 460.61 596.57 456.36 598.88 452.04 598.75 C 422.70 598.75 393.36 598.75 364.02 598.75 C 343.51 598.61 323.01 598.71 302.53 600.00 L 297.54 600.00 C 270.05 598.22 242.49 598.85 214.96 598.75 C 192.28 598.74 169.59 598.77 146.90 598.74 C 141.22 598.79 136.47 594.18 135.10 588.87 C 130.99 573.92 126.92 558.94 122.84 543.98 C 122.53 542.26 121.36 540.97 120.00 539.99 C 88.61 516.51 62.03 486.68 41.97 453.02 C 15.28 407.96 0.67 355.88 0.00 303.52 L 0.00 296.51 C 0.53 252.23 11.12 208.21 30.41 168.38 C 54.73 118.84 92.69 75.86 139.57 46.60 C 160.21 33.70 182.16 22.74 205.43 15.46 C 233.75 5.74 263.63 0.97 293.51 0.00 M 277.05 17.78 C 268.27 18.28 259.48 19.18 250.91 21.18 C 194.72 30.81 141.85 58.24 101.29 98.26 C 81.55 117.69 64.66 140.00 51.29 164.26 C 50.62 165.38 50.26 166.64 49.98 167.90 C 49.33 168.64 48.79 169.46 48.35 170.35 C 43.40 180.33 38.84 190.51 34.98 200.97 C 18.42 244.70 13.31 292.62 19.73 338.91 C 26.02 384.65 43.80 428.75 70.90 466.11 C 83.60 483.65 98.52 499.50 114.64 513.93 C 107.09 486.56 99.70 459.15 92.15 431.79 C 91.08 428.15 90.57 424.00 92.44 420.53 C 94.69 415.80 99.92 413.20 105.03 413.27 C 121.36 413.18 137.70 413.29 154.03 413.22 C 149.47 407.68 144.25 402.67 140.28 396.67 C 138.37 394.56 136.11 392.65 135.12 389.89 C 129.09 376.45 130.58 361.16 132.98 347.04 C 133.94 342.18 134.54 337.06 137.35 332.83 C 135.74 326.60 133.45 320.46 133.33 313.95 C 133.10 301.46 136.65 289.16 142.05 277.99 C 143.45 274.96 146.13 272.87 148.92 271.19 C 146.07 266.30 143.06 261.44 140.88 256.20 C 138.96 250.74 141.73 244.84 146.12 241.48 C 142.18 232.09 139.75 222.08 138.88 211.94 C 136.89 189.17 140.94 166.32 147.36 144.52 C 148.88 138.68 155.02 134.64 160.99 135.47 C 164.06 135.66 166.64 137.44 169.05 139.19 C 172.42 137.39 176.38 136.57 180.08 137.89 C 184.15 138.90 186.34 142.75 189.42 145.24 C 190.63 134.97 193.14 124.81 197.34 115.35 C 200.33 109.13 208.48 106.45 214.60 109.64 C 221.49 98.53 230.80 88.90 241.89 81.95 C 247.99 78.52 256.46 81.29 259.33 87.67 C 262.92 94.27 257.72 101.11 258.43 107.99 C 275.25 95.53 295.27 88.06 315.63 83.78 C 327.27 81.23 339.12 79.84 350.81 77.54 C 358.05 76.00 365.56 74.28 371.59 69.75 L 371.79 69.82 C 374.40 66.71 376.83 62.84 381.07 61.87 C 386.84 59.84 393.25 62.81 396.35 67.87 C 402.38 64.03 411.00 66.44 414.26 72.77 C 417.28 78.74 418.87 85.36 419.85 91.95 C 420.88 100.29 420.47 108.82 418.24 116.93 C 424.85 114.55 433.11 117.76 435.26 124.70 C 437.33 132.34 436.02 140.43 434.07 147.96 C 441.65 145.19 448.81 141.20 454.92 135.91 C 457.88 133.40 460.80 130.34 464.85 129.78 C 468.75 129.66 473.00 130.32 475.80 133.31 C 477.76 134.84 478.08 137.52 479.62 139.32 C 483.11 155.88 483.31 173.79 475.99 189.39 C 481.46 191.14 487.49 188.36 492.60 191.43 C 497.37 193.95 500.02 199.79 498.97 205.06 C 495.07 228.95 482.36 252.47 461.15 265.11 C 463.72 267.98 465.17 271.58 466.56 275.12 C 471.67 288.47 476.25 302.56 475.43 317.03 C 475.20 322.26 473.16 327.14 471.96 332.17 C 472.80 334.87 474.20 337.39 474.71 340.20 C 477.73 353.52 479.65 367.48 476.94 381.02 C 475.68 386.65 473.70 392.47 469.18 396.32 C 464.99 402.38 459.82 407.67 455.04 413.25 C 467.37 413.22 479.70 413.27 492.03 413.22 C 496.12 413.16 500.63 413.44 503.91 416.19 C 508.02 419.33 509.61 425.06 508.04 429.95 C 500.42 458.03 492.73 486.09 485.04 514.15 C 503.01 498.28 519.55 480.56 532.81 460.55 C 536.59 456.53 538.96 451.46 542.08 446.95 C 569.82 401.22 584.47 347.53 583.00 294.03 C 582.10 231.57 559.17 169.78 519.71 121.41 C 491.11 86.09 453.74 57.98 412.05 39.93 C 380.46 26.33 346.38 18.55 312.04 16.99 C 300.38 17.24 288.66 16.37 277.05 17.78 M 356.90 89.23 C 334.66 93.61 311.64 95.50 290.57 104.47 C 283.64 107.70 276.47 110.61 270.40 115.35 C 262.59 120.59 256.39 128.29 253.54 137.30 C 246.92 123.85 243.66 108.00 248.04 93.36 C 242.06 97.53 236.36 102.18 231.81 107.92 C 223.51 117.72 218.41 130.63 219.88 143.60 C 214.54 137.33 211.42 129.57 209.17 121.75 C 208.53 122.76 207.89 123.78 207.48 124.91 C 202.55 138.51 200.18 153.53 203.83 167.76 C 193.06 164.91 183.36 158.62 176.29 150.01 C 176.89 157.94 179.72 165.44 182.73 172.72 C 174.36 166.25 167.46 158.16 160.99 149.86 C 159.97 148.29 159.03 149.72 159.01 150.97 C 152.32 174.90 148.40 200.55 154.20 225.07 C 157.45 239.32 165.31 252.73 177.50 261.09 C 168.85 260.23 160.98 256.17 153.26 252.47 C 161.98 270.12 173.51 286.92 189.29 298.96 C 188.96 302.30 189.31 305.67 189.33 309.03 C 213.85 306.79 238.56 306.59 263.11 308.59 C 268.93 309.15 274.80 309.70 280.41 311.50 C 294.72 316.37 310.62 316.31 324.96 311.57 C 333.89 308.34 343.53 308.87 352.84 307.83 C 371.61 306.88 390.50 306.84 409.24 308.55 C 411.47 308.78 413.71 308.95 415.95 309.05 C 419.17 293.68 418.52 277.72 416.34 262.25 C 430.98 263.03 446.41 260.45 458.44 251.60 C 474.56 240.43 483.25 221.53 486.80 202.75 C 480.57 211.66 470.03 216.45 459.53 218.04 C 466.91 214.59 473.05 208.96 477.40 202.10 C 474.05 203.34 470.60 204.43 467.02 204.66 C 461.40 204.86 456.02 202.81 450.91 200.68 C 455.06 196.89 459.47 193.20 462.26 188.23 C 470.64 174.53 470.91 157.40 467.23 142.17 C 451.84 156.87 430.30 165.49 408.97 164.14 C 418.57 155.16 424.83 142.19 423.63 128.86 C 419.66 133.81 415.38 138.60 410.07 142.16 C 396.78 151.19 381.31 156.56 365.72 160.02 C 375.39 155.10 383.48 147.65 390.54 139.52 C 396.04 133.12 401.48 126.41 404.56 118.45 C 409.48 105.81 408.75 91.25 403.38 78.88 C 402.43 84.72 400.67 90.53 397.24 95.42 C 391.00 104.17 381.11 109.60 370.83 112.15 C 374.82 108.97 378.50 105.29 380.82 100.69 C 384.99 92.47 386.04 82.95 385.20 73.86 C 378.52 82.92 367.37 86.62 356.90 89.23 M 438.38 277.24 C 441.69 283.99 442.31 291.65 442.59 299.06 C 443.06 319.56 439.86 339.90 436.63 360.08 C 434.38 375.47 439.10 390.88 445.34 404.80 C 449.17 400.39 452.93 395.91 456.81 391.53 C 453.89 384.75 452.33 377.45 452.02 370.08 C 451.29 353.09 456.88 336.81 461.76 320.80 C 464.67 304.74 458.14 288.97 452.33 274.31 C 447.66 275.22 443.03 276.29 438.38 277.24 M 146.26 312.00 C 146.01 318.66 148.91 324.81 150.59 331.12 C 154.63 344.35 157.98 358.14 156.94 372.07 C 156.50 378.81 154.72 385.37 152.38 391.68 C 156.13 396.07 160.05 400.32 163.83 404.70 C 168.86 393.38 172.89 381.33 173.25 368.85 C 173.49 362.73 171.81 356.80 170.46 350.91 C 168.00 340.49 165.03 330.15 163.71 319.50 C 162.77 311.56 162.74 303.10 166.45 295.81 C 162.30 291.63 157.96 287.63 153.76 283.50 C 149.59 292.43 146.44 302.07 146.26 312.00 M 217.69 426.00 C 182.11 426.00 146.52 426.00 110.94 425.99 C 108.26 425.64 106.48 427.86 105.31 429.93 C 118.66 480.36 132.70 530.60 146.35 580.94 C 146.71 584.18 149.81 586.32 152.97 586.01 C 251.01 585.97 349.05 586.03 447.09 585.98 C 450.02 586.13 453.02 584.14 453.35 581.09 C 466.90 531.35 480.55 481.64 494.02 431.89 C 495.12 428.85 492.22 425.52 489.09 425.99 C 455.23 426.01 421.37 425.99 387.52 426.00 L 387.69 425.03 C 393.25 416.93 397.10 407.77 400.65 398.65 C 408.90 376.19 413.07 352.42 415.04 328.65 C 413.38 330.12 411.53 331.61 410.89 333.84 C 408.17 341.69 407.34 350.04 404.98 357.99 C 402.73 365.06 398.14 371.88 390.96 374.61 C 378.98 378.04 366.33 378.62 353.96 377.84 C 344.33 376.48 333.89 374.36 326.84 367.11 C 320.42 360.17 318.04 350.73 314.75 342.11 C 313.28 338.33 312.98 332.89 308.26 331.68 C 303.60 330.50 297.57 330.16 293.95 333.90 C 291.95 337.66 291.20 341.95 289.55 345.87 C 286.42 353.76 284.03 362.56 277.44 368.38 C 271.09 374.22 262.31 376.00 254.11 377.53 C 241.69 378.58 228.99 378.18 216.84 375.17 C 211.52 373.95 206.97 370.34 204.21 365.68 C 198.30 356.16 198.46 344.51 194.91 334.14 C 194.24 331.62 192.02 330.11 190.31 328.33 C 193.26 362.12 199.98 396.60 217.69 426.00 M 427.48 339.44 C 421.88 349.25 419.35 360.75 420.27 372.01 C 420.97 381.33 421.69 390.96 425.54 399.60 C 426.97 403.33 433.10 403.25 434.91 399.93 C 434.42 396.92 433.27 394.07 432.65 391.09 C 428.00 370.41 430.35 348.42 438.17 328.79 C 433.78 331.38 430.03 335.02 427.48 339.44 M 170.99 328.76 C 179.02 348.70 181.06 371.12 176.16 392.09 C 175.58 394.75 174.62 397.32 174.32 400.04 C 176.31 403.18 182.08 403.26 183.57 399.58 C 187.22 391.61 188.00 382.68 188.80 374.05 C 189.70 365.37 188.59 356.53 185.69 348.31 C 183.12 340.44 178.48 332.79 170.99 328.76 M 202.90 336.94 C 202.30 343.99 204.67 351.01 207.67 357.31 C 211.10 364.02 217.85 370.37 225.82 369.83 C 225.90 369.16 226.06 367.81 226.15 367.14 C 222.20 366.11 218.05 364.87 215.23 361.72 C 208.92 355.08 207.07 345.71 205.96 336.94 C 205.20 336.94 203.67 336.94 202.90 336.94 M 328.05 336.98 C 327.78 337.24 327.26 337.76 327.00 338.02 C 327.15 343.85 328.75 349.64 331.00 355.00 C 333.81 361.52 338.92 367.64 346.02 369.52 C 347.83 370.00 350.71 370.93 350.74 368.08 C 348.90 365.61 345.06 366.23 342.72 364.26 C 334.64 358.59 331.84 348.21 330.75 338.89 C 330.80 337.28 329.54 336.46 328.05 336.98 M 147.61 340.47 C 145.75 348.53 144.04 356.70 143.89 365.00 C 143.67 372.01 144.06 379.39 147.48 385.68 C 154.07 371.67 155.65 354.23 147.61 340.47 M 461.61 385.23 C 463.54 383.31 463.92 380.45 464.57 377.92 C 466.73 365.41 464.51 352.67 461.66 340.46 C 453.71 354.05 455.09 371.36 461.61 385.23 Z" />
<path fill="#000000" opacity="1.00" d=" M 256.86 492.89 C 260.35 487.44 266.76 484.50 273.14 484.53 C 292.77 484.42 312.41 484.51 332.04 484.49 C 337.88 484.46 343.88 486.82 347.53 491.51 C 351.96 497.21 353.96 504.28 355.97 511.10 C 358.44 520.01 360.83 528.94 363.08 537.90 C 364.17 542.79 364.96 548.10 363.03 552.90 C 360.91 558.31 354.57 560.96 349.06 560.29 C 344.17 559.73 340.57 555.89 337.86 552.11 C 333.91 546.18 330.59 539.87 327.03 533.71 C 312.35 533.67 297.68 533.75 283.01 533.68 C 281.51 533.81 279.82 533.36 278.46 534.13 C 273.51 541.87 270.11 550.88 263.20 557.17 C 256.56 563.56 243.15 559.92 241.65 550.49 C 239.97 540.74 244.45 531.45 246.41 522.09 C 249.27 512.18 251.16 501.68 256.86 492.89 M 277.77 496.53 C 277.72 499.01 277.69 501.50 277.70 503.99 C 275.21 503.99 272.72 504.00 270.24 504.00 C 270.24 505.81 270.24 507.62 270.26 509.44 C 272.73 509.46 275.22 509.49 277.70 509.49 C 277.70 511.99 277.71 514.49 277.71 517.00 C 279.63 516.99 281.55 516.99 283.47 517.00 C 283.47 514.50 283.49 512.00 283.51 509.51 C 285.92 509.49 288.32 509.47 290.73 509.45 C 290.75 507.63 290.76 505.82 290.78 504.01 C 288.34 504.00 285.91 503.99 283.47 503.98 C 283.48 501.48 283.48 498.99 283.50 496.50 C 281.58 496.50 279.67 496.51 277.77 496.53 M 323.33 497.32 C 320.10 499.71 324.20 504.94 327.22 502.27 C 330.93 500.03 326.29 494.35 323.33 497.32 M 318.23 503.14 C 314.18 504.04 315.97 510.63 319.97 509.24 C 323.96 508.29 322.11 501.85 318.23 503.14 M 328.99 507.80 C 330.50 511.29 336.23 508.58 334.68 505.23 C 334.31 503.52 332.53 503.21 331.16 502.72 C 329.52 503.74 327.56 505.80 328.99 507.80 M 323.31 510.11 C 320.20 512.57 323.99 517.82 327.21 515.24 C 330.79 512.94 326.61 507.45 323.31 510.11 Z" />
</g>
<g id="#aa0521ff">
<path fill="#aa0521" opacity="1.00" d=" M 277.05 17.78 C 288.66 16.37 300.38 17.24 312.04 16.99 C 346.38 18.55 380.46 26.33 412.05 39.93 C 453.74 57.98 491.11 86.09 519.71 121.41 C 559.17 169.78 582.10 231.57 583.00 294.03 C 584.47 347.53 569.82 401.22 542.08 446.95 C 538.96 451.46 536.59 456.53 532.81 460.55 C 534.92 454.32 538.02 448.50 540.42 442.38 C 555.70 404.06 562.80 362.43 560.32 321.21 C 557.23 262.18 535.22 204.06 497.37 158.54 C 491.78 151.86 486.47 144.78 479.62 139.32 C 478.08 137.52 477.76 134.84 475.80 133.31 C 473.00 130.32 468.75 129.66 464.85 129.78 C 466.45 129.51 468.06 129.31 469.68 129.10 C 454.79 114.59 437.58 102.70 419.85 91.95 C 418.87 85.36 417.28 78.74 414.26 72.77 C 411.00 66.44 402.38 64.03 396.35 67.87 C 393.25 62.81 386.84 59.84 381.07 61.87 C 376.83 62.84 374.40 66.71 371.79 69.82 L 371.59 69.75 C 360.05 65.44 348.13 62.09 335.99 59.94 C 255.20 42.32 167.18 63.16 102.55 114.63 C 86.95 126.83 72.75 140.81 60.03 155.98 C 56.57 159.87 53.72 164.26 49.98 167.90 C 50.26 166.64 50.62 165.38 51.29 164.26 C 64.66 140.00 81.55 117.69 101.29 98.26 C 141.85 58.24 194.72 30.81 250.91 21.18 C 259.48 19.18 268.27 18.28 277.05 17.78 Z" />
</g>
<g id="#e91833ff">
<path fill="#e91833" opacity="1.00" d=" M 102.55 114.63 C 167.18 63.16 255.20 42.32 335.99 59.94 C 348.13 62.09 360.05 65.44 371.59 69.75 C 365.56 74.28 358.05 76.00 350.81 77.54 C 339.12 79.84 327.27 81.23 315.63 83.78 C 295.27 88.06 275.25 95.53 258.43 107.99 C 257.72 101.11 262.92 94.27 259.33 87.67 C 256.46 81.29 247.99 78.52 241.89 81.95 C 230.80 88.90 221.49 98.53 214.60 109.64 C 208.48 106.45 200.33 109.13 197.34 115.35 C 193.14 124.81 190.63 134.97 189.42 145.24 C 186.34 142.75 184.15 138.90 180.08 137.89 C 176.38 136.57 172.42 137.39 169.05 139.19 C 166.64 137.44 164.06 135.66 160.99 135.47 C 155.02 134.64 148.88 138.68 147.36 144.52 C 140.94 166.32 136.89 189.17 138.88 211.94 C 139.75 222.08 142.18 232.09 146.12 241.48 C 141.73 244.84 138.96 250.74 140.88 256.20 C 143.06 261.44 146.07 266.30 148.92 271.19 C 146.13 272.87 143.45 274.96 142.05 277.99 C 136.65 289.16 133.10 301.46 133.33 313.95 C 133.45 320.46 135.74 326.60 137.35 332.83 C 134.54 337.06 133.94 342.18 132.98 347.04 C 130.58 361.16 129.09 376.45 135.12 389.89 C 136.11 392.65 138.37 394.56 140.28 396.67 C 144.25 402.67 149.47 407.68 154.03 413.22 C 137.70 413.29 121.36 413.18 105.03 413.27 C 99.92 413.20 94.69 415.80 92.44 420.53 C 90.57 424.00 91.08 428.15 92.15 431.79 C 99.70 459.15 107.09 486.56 114.64 513.93 C 98.52 499.50 83.60 483.65 70.90 466.11 C 43.80 428.75 26.02 384.65 19.73 338.91 C 13.31 292.62 18.42 244.70 34.98 200.97 C 38.84 190.51 43.40 180.33 48.35 170.35 C 48.79 169.46 49.33 168.64 49.98 167.90 C 53.72 164.26 56.57 159.87 60.03 155.98 C 72.75 140.81 86.95 126.83 102.55 114.63 Z" />
<path fill="#e91833" opacity="1.00" d=" M 419.85 91.95 C 437.58 102.70 454.79 114.59 469.68 129.10 C 468.06 129.31 466.45 129.51 464.85 129.78 C 460.80 130.34 457.88 133.40 454.92 135.91 C 448.81 141.20 441.65 145.19 434.07 147.96 C 436.02 140.43 437.33 132.34 435.26 124.70 C 433.11 117.76 424.85 114.55 418.24 116.93 C 420.47 108.82 420.88 100.29 419.85 91.95 Z" />
<path fill="#e91833" opacity="1.00" d=" M 479.62 139.32 C 486.47 144.78 491.78 151.86 497.37 158.54 C 535.22 204.06 557.23 262.18 560.32 321.21 C 562.80 362.43 555.70 404.06 540.42 442.38 C 538.02 448.50 534.92 454.32 532.81 460.55 C 519.55 480.56 503.01 498.28 485.04 514.15 C 492.73 486.09 500.42 458.03 508.04 429.95 C 509.61 425.06 508.02 419.33 503.91 416.19 C 500.63 413.44 496.12 413.16 492.03 413.22 C 479.70 413.27 467.37 413.22 455.04 413.25 C 459.82 407.67 464.99 402.38 469.18 396.32 C 473.70 392.47 475.68 386.65 476.94 381.02 C 479.65 367.48 477.73 353.52 474.71 340.20 C 474.20 337.39 472.80 334.87 471.96 332.17 C 473.16 327.14 475.20 322.26 475.43 317.03 C 476.25 302.56 471.67 288.47 466.56 275.12 C 465.17 271.58 463.72 267.98 461.15 265.11 C 482.36 252.47 495.07 228.95 498.97 205.06 C 500.02 199.79 497.37 193.95 492.60 191.43 C 487.49 188.36 481.46 191.14 475.99 189.39 C 483.31 173.79 483.11 155.88 479.62 139.32 Z" />
<path fill="#e91833" opacity="1.00" d=" M 427.48 339.44 C 430.03 335.02 433.78 331.38 438.17 328.79 C 430.35 348.42 428.00 370.41 432.65 391.09 C 433.27 394.07 434.42 396.92 434.91 399.93 C 433.10 403.25 426.97 403.33 425.54 399.60 C 421.69 390.96 420.97 381.33 420.27 372.01 C 419.35 360.75 421.88 349.25 427.48 339.44 Z" />
<path fill="#e91833" opacity="1.00" d=" M 170.99 328.76 C 178.48 332.79 183.12 340.44 185.69 348.31 C 188.59 356.53 189.70 365.37 188.80 374.05 C 188.00 382.68 187.22 391.61 183.57 399.58 C 182.08 403.26 176.31 403.18 174.32 400.04 C 174.62 397.32 175.58 394.75 176.16 392.09 C 181.06 371.12 179.02 348.70 170.99 328.76 Z" />
</g>
<g id="#83392bff">
<path fill="#83392b" opacity="1.00" d=" M 356.90 89.23 C 367.37 86.62 378.52 82.92 385.20 73.86 C 386.04 82.95 384.99 92.47 380.82 100.69 C 378.50 105.29 374.82 108.97 370.83 112.15 C 381.11 109.60 391.00 104.17 397.24 95.42 C 400.67 90.53 402.43 84.72 403.38 78.88 C 408.75 91.25 409.48 105.81 404.56 118.45 C 401.48 126.41 396.04 133.12 390.54 139.52 C 383.48 147.65 375.39 155.10 365.72 160.02 C 381.31 156.56 396.78 151.19 410.07 142.16 C 415.38 138.60 419.66 133.81 423.63 128.86 C 424.83 142.19 418.57 155.16 408.97 164.14 C 430.30 165.49 451.84 156.87 467.23 142.17 C 470.91 157.40 470.64 174.53 462.26 188.23 C 459.47 193.20 455.06 196.89 450.91 200.68 C 456.02 202.81 461.40 204.86 467.02 204.66 C 470.60 204.43 474.05 203.34 477.40 202.10 C 473.05 208.96 466.91 214.59 459.53 218.04 C 470.03 216.45 480.57 211.66 486.80 202.75 C 483.25 221.53 474.56 240.43 458.44 251.60 C 446.41 260.45 430.98 263.03 416.34 262.25 C 418.52 277.72 419.17 293.68 415.95 309.05 C 413.71 308.95 411.47 308.78 409.24 308.55 C 407.26 298.23 404.20 286.22 393.95 281.11 C 397.26 287.86 398.47 295.36 397.91 302.83 C 387.14 289.58 374.15 278.15 359.42 269.47 C 335.00 255.02 306.29 247.87 277.93 249.42 C 269.02 249.94 260.07 250.56 251.30 252.34 C 237.42 255.19 222.91 258.02 211.41 266.88 C 200.69 274.64 192.82 286.24 189.29 298.96 C 173.51 286.92 161.98 270.12 153.26 252.47 C 160.98 256.17 168.85 260.23 177.50 261.09 C 165.31 252.73 157.45 239.32 154.20 225.07 C 148.40 200.55 152.32 174.90 159.01 150.97 C 159.03 149.72 159.97 148.29 160.99 149.86 C 167.46 158.16 174.36 166.25 182.73 172.72 C 179.72 165.44 176.89 157.94 176.29 150.01 C 183.36 158.62 193.06 164.91 203.83 167.76 C 200.18 153.53 202.55 138.51 207.48 124.91 C 207.89 123.78 208.53 122.76 209.17 121.75 C 211.42 129.57 214.54 137.33 219.88 143.60 C 218.41 130.63 223.51 117.72 231.81 107.92 C 236.36 102.18 242.06 97.53 248.04 93.36 C 243.66 108.00 246.92 123.85 253.54 137.30 C 256.39 128.29 262.59 120.59 270.40 115.35 C 276.47 110.61 283.64 107.70 290.57 104.47 C 311.64 95.50 334.66 93.61 356.90 89.23 Z" />
</g>
<g id="#d98789ff">
<path fill="#d98789" opacity="1.00" d=" M 251.30 252.34 C 260.07 250.56 269.02 249.94 277.93 249.42 C 306.29 247.87 335.00 255.02 359.42 269.47 C 374.15 278.15 387.14 289.58 397.91 302.83 C 398.47 295.36 397.26 287.86 393.95 281.11 C 404.20 286.22 407.26 298.23 409.24 308.55 C 390.50 306.84 371.61 306.88 352.84 307.83 C 353.54 307.71 354.95 307.46 355.65 307.34 C 334.48 287.71 307.12 275.64 279.01 270.05 C 256.79 265.54 233.95 265.00 211.41 266.88 C 222.91 258.02 237.42 255.19 251.30 252.34 Z" />
<path fill="#d98789" opacity="1.00" d=" M 410.89 333.84 C 411.53 331.61 413.38 330.12 415.04 328.65 C 413.07 352.42 408.90 376.19 400.65 398.65 C 397.10 407.77 393.25 416.93 387.69 425.03 C 388.68 419.01 390.29 413.11 390.99 407.04 C 392.60 396.30 392.32 385.36 390.96 374.61 C 398.14 371.88 402.73 365.06 404.98 357.99 C 407.34 350.04 408.17 341.69 410.89 333.84 Z" />
</g>
<g id="#f7d9ccff">
<path fill="#f7d9cc" opacity="1.00" d=" M 211.41 266.88 C 233.95 265.00 256.79 265.54 279.01 270.05 C 307.12 275.64 334.48 287.71 355.65 307.34 C 354.95 307.46 353.54 307.71 352.84 307.83 C 343.53 308.87 333.89 308.34 324.96 311.57 C 310.62 316.31 294.72 316.37 280.41 311.50 C 274.80 309.70 268.93 309.15 263.11 308.59 C 238.56 306.59 213.85 306.79 189.33 309.03 C 189.31 305.67 188.96 302.30 189.29 298.96 C 192.82 286.24 200.69 274.64 211.41 266.88 Z" />
<path fill="#f7d9cc" opacity="1.00" d=" M 438.38 277.24 C 443.03 276.29 447.66 275.22 452.33 274.31 C 458.14 288.97 464.67 304.74 461.76 320.80 C 456.88 336.81 451.29 353.09 452.02 370.08 C 452.33 377.45 453.89 384.75 456.81 391.53 C 452.93 395.91 449.17 400.39 445.34 404.80 C 439.10 390.88 434.38 375.47 436.63 360.08 C 439.86 339.90 443.06 319.56 442.59 299.06 C 442.31 291.65 441.69 283.99 438.38 277.24 Z" />
<path fill="#f7d9cc" opacity="1.00" d=" M 146.26 312.00 C 146.44 302.07 149.59 292.43 153.76 283.50 C 157.96 287.63 162.30 291.63 166.45 295.81 C 162.74 303.10 162.77 311.56 163.71 319.50 C 165.03 330.15 168.00 340.49 170.46 350.91 C 171.81 356.80 173.49 362.73 173.25 368.85 C 172.89 381.33 168.86 393.38 163.83 404.70 C 160.05 400.32 156.13 396.07 152.38 391.68 C 154.72 385.37 156.50 378.81 156.94 372.07 C 157.98 358.14 154.63 344.35 150.59 331.12 C 148.91 324.81 146.01 318.66 146.26 312.00 Z" />
<path fill="#f7d9cc" opacity="1.00" d=" M 217.69 426.00 C 199.98 396.60 193.26 362.12 190.31 328.33 C 192.02 330.11 194.24 331.62 194.91 334.14 C 198.46 344.51 198.30 356.16 204.21 365.68 C 206.97 370.34 211.52 373.95 216.84 375.17 C 228.99 378.18 241.69 378.58 254.11 377.53 C 262.31 376.00 271.09 374.22 277.44 368.38 C 284.03 362.56 286.42 353.76 289.55 345.87 C 291.20 341.95 291.95 337.66 293.95 333.90 C 297.57 330.16 303.60 330.50 308.26 331.68 C 312.98 332.89 313.28 338.33 314.75 342.11 C 318.04 350.73 320.42 360.17 326.84 367.11 C 333.89 374.36 344.33 376.48 353.96 377.84 C 366.33 378.62 378.98 378.04 390.96 374.61 C 392.32 385.36 392.60 396.30 390.99 407.04 C 390.29 413.11 388.68 419.01 387.69 425.03 L 387.52 426.00 C 330.91 426.00 274.30 426.01 217.69 426.00 Z" />
<path fill="#f7d9cc" opacity="1.00" d=" M 202.90 336.94 C 203.67 336.94 205.20 336.94 205.96 336.94 C 207.07 345.71 208.92 355.08 215.23 361.72 C 218.05 364.87 222.20 366.11 226.15 367.14 C 226.06 367.81 225.90 369.16 225.82 369.83 C 217.85 370.37 211.10 364.02 207.67 357.31 C 204.67 351.01 202.30 343.99 202.90 336.94 Z" />
<path fill="#f7d9cc" opacity="1.00" d=" M 328.05 336.98 C 329.54 336.46 330.80 337.28 330.75 338.89 C 331.84 348.21 334.64 358.59 342.72 364.26 C 345.06 366.23 348.90 365.61 350.74 368.08 C 350.71 370.93 347.83 370.00 346.02 369.52 C 338.92 367.64 333.81 361.52 331.00 355.00 C 328.75 349.64 327.15 343.85 327.00 338.02 C 327.26 337.76 327.78 337.24 328.05 336.98 Z" />
<path fill="#f7d9cc" opacity="1.00" d=" M 147.61 340.47 C 155.65 354.23 154.07 371.67 147.48 385.68 C 144.06 379.39 143.67 372.01 143.89 365.00 C 144.04 356.70 145.75 348.53 147.61 340.47 Z" />
<path fill="#f7d9cc" opacity="1.00" d=" M 461.61 385.23 C 455.09 371.36 453.71 354.05 461.66 340.46 C 464.51 352.67 466.73 365.41 464.57 377.92 C 463.92 380.45 463.54 383.31 461.61 385.23 Z" />
</g>
<g id="#929496ff">
<path fill="#929496" opacity="1.00" d=" M 217.69 426.00 C 274.30 426.01 330.91 426.00 387.52 426.00 C 421.37 425.99 455.23 426.01 489.09 425.99 C 492.22 425.52 495.12 428.85 494.02 431.89 C 480.55 481.64 466.90 531.35 453.35 581.09 C 453.02 584.14 450.02 586.13 447.09 585.98 C 349.05 586.03 251.01 585.97 152.97 586.01 C 149.81 586.32 146.71 584.18 146.35 580.94 C 132.70 530.60 118.66 480.36 105.31 429.93 C 106.48 427.86 108.26 425.64 110.94 425.99 C 146.52 426.00 182.11 426.00 217.69 426.00 M 256.86 492.89 C 251.16 501.68 249.27 512.18 246.41 522.09 C 244.45 531.45 239.97 540.74 241.65 550.49 C 243.15 559.92 256.56 563.56 263.20 557.17 C 270.11 550.88 273.51 541.87 278.46 534.13 C 279.82 533.36 281.51 533.81 283.01 533.68 C 297.68 533.75 312.35 533.67 327.03 533.71 C 330.59 539.87 333.91 546.18 337.86 552.11 C 340.57 555.89 344.17 559.73 349.06 560.29 C 354.57 560.96 360.91 558.31 363.03 552.90 C 364.96 548.10 364.17 542.79 363.08 537.90 C 360.83 528.94 358.44 520.01 355.97 511.10 C 353.96 504.28 351.96 497.21 347.53 491.51 C 343.88 486.82 337.88 484.46 332.04 484.49 C 312.41 484.51 292.77 484.42 273.14 484.53 C 266.76 484.50 260.35 487.44 256.86 492.89 Z" />
<path fill="#929496" opacity="1.00" d=" M 277.77 496.53 C 279.67 496.51 281.58 496.50 283.50 496.50 C 283.48 498.99 283.48 501.48 283.47 503.98 C 285.91 503.99 288.34 504.00 290.78 504.01 C 290.76 505.82 290.75 507.63 290.73 509.45 C 288.32 509.47 285.92 509.49 283.51 509.51 C 283.49 512.00 283.47 514.50 283.47 517.00 C 281.55 516.99 279.63 516.99 277.71 517.00 C 277.71 514.49 277.70 511.99 277.70 509.49 C 275.22 509.49 272.73 509.46 270.26 509.44 C 270.24 507.62 270.24 505.81 270.24 504.00 C 272.72 504.00 275.21 503.99 277.70 503.99 C 277.69 501.50 277.72 499.01 277.77 496.53 Z" />
<path fill="#929496" opacity="1.00" d=" M 323.33 497.32 C 326.29 494.35 330.93 500.03 327.22 502.27 C 324.20 504.94 320.10 499.71 323.33 497.32 Z" />
<path fill="#929496" opacity="1.00" d=" M 318.23 503.14 C 322.11 501.85 323.96 508.29 319.97 509.24 C 315.97 510.63 314.18 504.04 318.23 503.14 Z" />
<path fill="#929496" opacity="1.00" d=" M 328.99 507.80 C 327.56 505.80 329.52 503.74 331.16 502.72 C 332.53 503.21 334.31 503.52 334.68 505.23 C 336.23 508.58 330.50 511.29 328.99 507.80 Z" />
<path fill="#929496" opacity="1.00" d=" M 323.31 510.11 C 326.61 507.45 330.79 512.94 327.21 515.24 C 323.99 517.82 320.20 512.57 323.31 510.11 Z" />
</g>
</svg>
