<?xml version="1.0" encoding="UTF-8" ?>
<!DOCTYPE svg PUBLIC "-//W3C//DTD SVG 1.1//EN" "http://www.w3.org/Graphics/SVG/1.1/DTD/svg11.dtd">
<svg width="474pt" height="600pt" viewBox="0 0 474 600" version="1.1" xmlns="http://www.w3.org/2000/svg">
<g id="#71069eff">
<path fill="#71069e" opacity="1.00" d=" M 152.75 0.00 L 321.78 0.00 C 327.70 1.21 333.48 4.00 337.31 8.79 C 341.56 13.79 342.96 20.54 342.84 26.96 C 342.77 37.34 342.90 47.72 342.79 58.10 C 342.73 67.19 337.01 76.01 328.57 79.50 C 323.42 82.06 317.53 81.73 311.94 81.81 C 311.94 100.19 311.94 118.58 311.94 136.96 C 326.50 142.08 340.87 147.98 354.14 155.93 C 378.63 170.03 400.97 188.14 418.88 210.06 C 435.97 230.54 449.68 253.86 459.15 278.80 C 467.86 302.11 472.67 326.79 474.00 351.63 L 474.00 372.34 C 472.62 398.59 467.31 424.70 457.48 449.11 C 443.93 483.61 421.91 514.63 394.24 539.24 C 366.40 563.64 333.00 581.83 297.10 591.06 C 250.52 603.36 200.25 600.56 155.07 583.97 C 97.58 562.91 49.08 518.52 22.93 463.16 C -4.03 406.89 -7.04 339.76 14.30 281.17 C 27.66 244.26 50.40 210.78 79.76 184.73 C 103.86 163.71 131.89 147.02 162.32 137.02 C 162.32 118.60 162.33 100.18 162.32 81.76 C 156.39 81.79 150.13 82.04 144.75 79.13 C 136.71 75.39 131.55 66.79 131.51 57.99 C 131.51 46.06 131.43 34.11 131.54 22.18 C 132.04 10.81 141.74 1.53 152.75 0.00 M 153.31 19.26 C 150.96 20.70 151.17 23.67 151.15 26.05 C 151.23 36.05 151.10 46.06 151.20 56.06 C 150.88 58.75 153.20 61.33 155.97 60.96 C 162.14 60.87 168.96 60.77 174.02 64.91 C 179.37 68.79 181.98 75.51 181.83 81.99 C 181.83 100.01 181.82 118.04 181.83 136.06 C 181.95 141.53 180.01 147.16 175.96 150.94 C 172.71 154.20 168.21 155.59 163.99 157.11 C 128.29 169.61 96.21 191.98 71.69 220.73 C 44.22 252.63 26.60 292.80 21.30 334.54 C 17.11 368.23 20.88 402.91 32.22 434.92 C 40.11 456.89 51.49 477.64 65.92 496.00 C 92.48 529.80 129.17 555.71 170.19 568.75 C 209.72 581.57 252.96 582.67 293.08 571.80 C 329.80 562.13 363.90 542.59 390.68 515.65 C 420.13 485.99 441.17 447.87 449.69 406.89 C 459.23 362.36 454.06 314.90 435.59 273.31 C 412.62 221.94 369.19 179.86 316.61 159.53 C 310.25 156.60 302.57 155.75 297.57 150.43 C 293.83 146.68 292.23 141.27 292.26 136.06 C 292.25 117.35 292.24 98.63 292.26 79.91 C 292.29 71.79 298.11 64.05 305.99 61.95 C 310.51 60.37 315.34 61.41 319.98 60.76 C 322.02 60.29 322.89 57.96 322.89 56.07 C 322.99 45.37 322.93 34.65 322.92 23.94 C 323.28 21.12 320.95 18.34 318.01 18.77 C 264.68 18.69 211.34 18.80 158.01 18.72 C 156.44 18.79 154.79 18.66 153.31 19.26 Z" />
</g>
<g id="#ffffffff">
<path fill="#ffffff" opacity="1.00" d=" M 153.31 19.26 C 154.79 18.66 156.44 18.79 158.01 18.72 C 211.34 18.80 264.68 18.69 318.01 18.77 C 320.95 18.34 323.28 21.12 322.92 23.94 C 322.93 34.65 322.99 45.37 322.89 56.07 C 322.89 57.96 322.02 60.29 319.98 60.76 C 315.34 61.41 310.51 60.37 305.99 61.95 C 298.11 64.05 292.29 71.79 292.26 79.91 C 292.24 98.63 292.25 117.35 292.26 136.06 C 292.23 141.27 293.83 146.68 297.57 150.43 C 302.57 155.75 310.25 156.60 316.61 159.53 C 369.19 179.86 412.62 221.94 435.59 273.31 C 454.06 314.90 459.23 362.36 449.69 406.89 C 441.17 447.87 420.13 485.99 390.68 515.65 C 363.90 542.59 329.80 562.13 293.08 571.80 C 252.96 582.67 209.72 581.57 170.19 568.75 C 129.17 555.71 92.48 529.80 65.92 496.00 C 51.49 477.64 40.11 456.89 32.22 434.92 C 20.88 402.91 17.11 368.23 21.30 334.54 C 26.60 292.80 44.22 252.63 71.69 220.73 C 96.21 191.98 128.29 169.61 163.99 157.11 C 168.21 155.59 172.71 154.20 175.96 150.94 C 180.01 147.16 181.95 141.53 181.83 136.06 C 181.82 118.04 181.83 100.01 181.83 81.99 C 181.98 75.51 179.37 68.79 174.02 64.91 C 168.96 60.77 162.14 60.87 155.97 60.96 C 153.20 61.33 150.88 58.75 151.20 56.06 C 151.10 46.06 151.23 36.05 151.15 26.05 C 151.17 23.67 150.96 20.70 153.31 19.26 M 201.01 194.57 C 199.29 204.20 202.04 214.28 207.81 222.09 C 212.22 228.32 218.97 232.47 223.03 238.98 C 226.84 244.11 229.20 250.11 231.15 256.15 C 233.28 263.43 234.68 271.12 233.61 278.72 C 223.98 277.00 214.79 273.22 206.43 268.18 C 201.75 265.45 196.88 262.87 191.60 261.53 C 175.78 257.38 158.51 258.13 143.36 264.43 C 136.36 267.67 129.84 272.13 124.98 278.18 C 103.19 282.59 81.12 287.27 61.06 297.21 C 55.49 300.38 49.73 303.70 45.64 308.76 C 42.46 312.61 41.53 317.64 40.11 322.29 C 33.77 355.63 35.35 390.55 45.78 422.91 C 55.09 451.66 70.71 478.48 91.74 500.22 C 117.18 527.04 150.19 546.69 186.03 555.83 C 243.53 571.35 307.79 559.08 355.54 523.48 C 388.77 499.00 414.16 464.07 427.17 424.90 C 437.75 392.98 440.36 358.24 433.81 325.23 C 433.20 320.47 432.95 315.45 430.73 311.11 C 425.09 302.83 415.85 298.19 407.02 294.07 C 402.66 291.85 397.74 290.92 393.46 288.56 C 389.94 280.41 386.98 271.97 383.06 263.98 C 372.86 243.12 360.22 223.41 344.95 205.89 C 351.20 218.10 358.22 229.99 363.10 242.87 C 368.69 256.12 372.99 269.87 376.19 283.88 C 367.27 281.55 358.23 279.70 349.15 278.16 C 341.69 268.95 330.59 263.38 319.19 260.76 C 304.63 257.75 288.90 258.23 275.15 264.22 C 263.81 269.93 252.80 277.45 239.81 278.62 C 239.39 261.24 236.20 243.91 230.49 227.50 C 225.50 213.27 215.63 199.83 201.01 194.57 M 252.88 223.97 C 245.67 235.06 244.80 249.31 247.38 261.99 C 252.06 260.85 257.04 259.99 261.02 257.07 C 270.94 250.47 276.32 239.06 279.36 227.89 C 281.42 219.99 283.09 211.92 283.36 203.73 C 271.10 206.25 260.31 214.07 252.88 223.97 Z" />
</g>
<g id="#9100cfff">
<path fill="#9100cf" opacity="1.00" d=" M 201.01 194.57 C 215.63 199.83 225.50 213.27 230.49 227.50 C 236.20 243.91 239.39 261.24 239.81 278.62 C 252.80 277.45 263.81 269.93 275.15 264.22 C 288.90 258.23 304.63 257.75 319.19 260.76 C 330.59 263.38 341.69 268.95 349.15 278.16 C 361.01 292.92 364.02 313.47 359.01 331.47 C 328.88 338.78 297.81 340.96 266.92 342.24 C 225.53 343.54 183.93 342.54 142.88 336.77 C 133.55 335.46 124.31 333.55 115.13 331.41 C 109.98 313.44 113.24 292.94 124.98 278.18 C 129.84 272.13 136.36 267.67 143.36 264.43 C 158.51 258.13 175.78 257.38 191.60 261.53 C 196.88 262.87 201.75 265.45 206.43 268.18 C 214.79 273.22 223.98 277.00 233.61 278.72 C 234.68 271.12 233.28 263.43 231.15 256.15 C 229.20 250.11 226.84 244.11 223.03 238.98 C 218.97 232.47 212.22 228.32 207.81 222.09 C 202.04 214.28 199.29 204.20 201.01 194.57 Z" />
<path fill="#9100cf" opacity="1.00" d=" M 252.88 223.97 C 260.31 214.07 271.10 206.25 283.36 203.73 C 283.09 211.92 281.42 219.99 279.36 227.89 C 276.32 239.06 270.94 250.47 261.02 257.07 C 257.04 259.99 252.06 260.85 247.38 261.99 C 244.80 249.31 245.67 235.06 252.88 223.97 Z" />
<path fill="#9100cf" opacity="1.00" d=" M 126.89 359.48 C 135.65 360.36 144.31 362.10 153.07 363.02 C 216.43 370.13 280.77 369.44 343.83 359.85 C 344.61 359.85 346.17 359.85 346.95 359.85 C 342.34 368.58 336.11 376.29 330.07 384.05 C 322.56 393.64 314.06 402.57 308.11 413.29 C 301.69 424.38 296.02 436.04 287.83 445.99 C 281.36 453.76 271.25 458.85 261.00 457.62 C 251.72 456.55 244.52 450.12 237.09 445.09 C 229.98 449.50 223.59 455.69 215.11 457.29 C 205.74 459.02 195.75 455.74 189.20 448.83 C 176.00 435.44 170.01 417.04 158.78 402.22 C 147.87 388.20 135.75 374.97 126.89 359.48 Z" />
</g>
<g id="#d5a1edff">
<path fill="#d5a1ed" opacity="1.00" d=" M 344.95 205.89 C 360.22 223.41 372.86 243.12 383.06 263.98 C 386.98 271.97 389.94 280.41 393.46 288.56 C 397.74 290.92 402.66 291.85 407.02 294.07 C 415.85 298.19 425.09 302.83 430.73 311.11 C 432.95 315.45 433.20 320.47 433.81 325.23 C 433.51 324.34 433.20 323.45 432.89 322.58 C 428.61 331.49 420.13 337.26 411.45 341.37 C 409.33 342.37 407.12 343.23 405.16 344.52 C 404.69 346.29 404.76 348.14 404.78 349.97 C 405.46 367.84 403.35 385.76 399.16 403.13 C 395.21 420.60 389.67 437.79 381.82 453.92 C 374.57 467.79 365.38 481.26 352.21 490.14 C 339.58 499.21 322.86 502.02 307.87 498.07 C 303.08 496.83 297.94 494.02 296.57 488.90 C 295.38 482.55 298.11 476.32 300.97 470.81 C 307.88 458.43 316.68 447.27 325.27 436.05 C 335.94 422.08 347.28 408.57 356.82 393.77 C 364.72 381.51 370.82 368.08 374.65 353.99 C 364.48 356.48 354.29 358.97 343.83 359.85 C 280.77 369.44 216.43 370.13 153.07 363.02 C 144.31 362.10 135.65 360.36 126.89 359.48 C 120.48 359.01 114.23 357.47 107.98 356.13 C 91.52 352.37 75.02 347.91 59.99 340.04 C 52.25 336.13 44.56 330.63 41.37 322.22 C 41.06 322.23 40.43 322.27 40.11 322.29 C 41.53 317.64 42.46 312.61 45.64 308.76 C 49.73 303.70 55.49 300.38 61.06 297.21 C 81.12 287.27 103.19 282.59 124.98 278.18 C 113.24 292.94 109.98 313.44 115.13 331.41 C 124.31 333.55 133.55 335.46 142.88 336.77 C 183.93 342.54 225.53 343.54 266.92 342.24 C 297.81 340.96 328.88 338.78 359.01 331.47 C 364.02 313.47 361.01 292.92 349.15 278.16 C 358.23 279.70 367.27 281.55 376.19 283.88 C 372.99 269.87 368.69 256.12 363.10 242.87 C 358.22 229.99 351.20 218.10 344.95 205.89 Z" />
</g>
<g id="#b65ae0ff">
<path fill="#b65ae0" opacity="1.00" d=" M 40.11 322.29 C 40.43 322.27 41.06 322.23 41.37 322.22 C 44.56 330.63 52.25 336.13 59.99 340.04 C 75.02 347.91 91.52 352.37 107.98 356.13 C 114.23 357.47 120.48 359.01 126.89 359.48 C 135.75 374.97 147.87 388.20 158.78 402.22 C 170.01 417.04 176.00 435.44 189.20 448.83 C 195.75 455.74 205.74 459.02 215.11 457.29 C 223.59 455.69 229.98 449.50 237.09 445.09 C 244.52 450.12 251.72 456.55 261.00 457.62 C 271.25 458.85 281.36 453.76 287.83 445.99 C 296.02 436.04 301.69 424.38 308.11 413.29 C 314.06 402.57 322.56 393.64 330.07 384.05 C 336.11 376.29 342.34 368.58 346.95 359.85 C 346.17 359.85 344.61 359.85 343.83 359.85 C 354.29 358.97 364.48 356.48 374.65 353.99 C 370.82 368.08 364.72 381.51 356.82 393.77 C 347.28 408.57 335.94 422.08 325.27 436.05 C 316.68 447.27 307.88 458.43 300.97 470.81 C 298.11 476.32 295.38 482.55 296.57 488.90 C 297.94 494.02 303.08 496.83 307.87 498.07 C 322.86 502.02 339.58 499.21 352.21 490.14 C 365.38 481.26 374.57 467.79 381.82 453.92 C 389.67 437.79 395.21 420.60 399.16 403.13 C 403.35 385.76 405.46 367.84 404.78 349.97 C 404.76 348.14 404.69 346.29 405.16 344.52 C 407.12 343.23 409.33 342.37 411.45 341.37 C 420.13 337.26 428.61 331.49 432.89 322.58 C 433.20 323.45 433.51 324.34 433.81 325.23 C 440.36 358.24 437.75 392.98 427.17 424.90 C 414.16 464.07 388.77 499.00 355.54 523.48 C 307.79 559.08 243.53 571.35 186.03 555.83 C 150.19 546.69 117.18 527.04 91.74 500.22 C 70.71 478.48 55.09 451.66 45.78 422.91 C 35.35 390.55 33.77 355.63 40.11 322.29 Z" />
</g>
</svg>
